Coordinates
version=1
nRows=31
nColumns=38
inDegrees=no

Units are S.I. units (second, meters, Newtons, ...)
If the header above contains a line with 'inDegrees', this indicates whether rotational values are in degrees (yes) or radians (no).

endheader
time	pelvis_tilt	pelvis_list	pelvis_rotation	pelvis_tx	pelvis_ty	pelvis_tz	hip_flexion_r	hip_adduction_r	hip_rotation_r	knee_angle_r	ankle_angle_r	subtalar_angle_r	mtp_angle_r	hip_flexion_l	hip_adduction_l	hip_rotation_l	knee_angle_l	ankle_angle_l	subtalar_angle_l	mtp_angle_l	lumbar_extension	lumbar_bending	lumbar_rotation	arm_flex_r	arm_add_r	arm_rot_r	elbow_flex_r	pro_sup_r	wrist_flex_r	wrist_dev_r	arm_flex_l	arm_add_l	arm_rot_l	elbow_flex_l	pro_sup_l	wrist_flex_l	wrist_dev_l
50	0.261021	1.37384	-1.45317	0.687865	1.8653	0.940277	-0.290513	-0.0814006	-0.230977	0.271392	-0.252205	0	0	-0.224877	-0.0689029	-0.148051	0.212905	-0.242228	0	0	-0.593953	0.119925	-0.763331	0.718658	-0.043566	1.5708	0.598409	0.713309	0	0	-0.394465	-0.0791666	-0.583814	1.20472	1.5708	0	0
50.01	0.280228	1.36162	-1.47236	0.689663	1.8657	0.941021	-0.286177	-0.0916271	-0.226729	0.308043	-0.24947	0	0	-0.244107	-0.061833	-0.136144	0.19931	-0.260834	0	0	-0.612162	0.116833	-0.76252	0.722103	-0.0465728	1.5708	0.601525	0.703904	0	0	-0.418742	-0.080987	-0.558802	1.21053	1.5708	0	0
50.02	0.285837	1.359	-1.47994	0.691544	1.86556	0.940995	-0.267273	-0.101305	-0.216435	0.35344	-0.241791	0	0	-0.250316	-0.0575515	-0.131042	0.193379	-0.273035	0	0	-0.619164	0.116525	-0.761594	0.724475	-0.0494145	1.5708	0.602733	0.693195	0	0	-0.41816	-0.082454	-0.560183	1.21098	1.5708	0	0
50.03	0.291193	1.35696	-1.48848	0.693426	1.86518	0.940798	-0.245849	-0.111526	-0.203116	0.403027	-0.232062	0	0	-0.25401	-0.0539729	-0.1335	0.193292	-0.280082	0	0	-0.62515	0.115981	-0.76078	0.726629	-0.0520248	1.5708	0.603381	0.682152	0	0	-0.4171	-0.0821247	-0.56385	1.20976	1.5708	0	0
50.04	0.261642	1.36335	-1.46518	0.696598	1.8635	0.939143	-0.21505	-0.117136	-0.190955	0.453884	-0.223128	0	0	-0.249127	-0.056226	-0.147708	0.19761	-0.28081	0	0	-0.617714	0.124598	-0.758719	0.72926	-0.058765	1.5708	0.606231	0.673987	0	0	-0.390785	-0.0759733	-0.594087	1.2019	1.5708	0	0
50.05	0.231578	1.3916	-1.43045	0.700102	1.86417	0.935544	-0.148296	-0.126654	-0.180959	0.532492	-0.206414	0	0	-0.230458	-0.0580752	-0.148951	0.1658	-0.287354	0	0	-0.589272	0.135286	-0.762982	0.730995	-0.0652594	1.5708	0.605808	0.664048	0	0	-0.382316	-0.0713465	-0.597586	1.18898	1.5708	0	0
50.06	0.23374	1.39078	-1.43624	0.701466	1.86353	0.93574	-0.121627	-0.134368	-0.167592	0.587913	-0.202913	0	0	-0.23717	-0.0547496	-0.145973	0.156109	-0.292501	0	0	-0.593429	0.13462	-0.759165	0.730194	-0.0673942	1.5708	0.601924	0.655916	0	0	-0.376892	-0.074067	-0.598736	1.18102	1.5708	0	0
50.07	0.227157	1.38378	-1.43005	0.703118	1.86303	0.936395	-0.103904	-0.138625	-0.160409	0.637185	-0.205517	0	0	-0.246568	-0.0545833	-0.143404	0.155053	-0.295081	0	0	-0.605309	0.139348	-0.761908	0.732598	-0.0667555	1.5708	0.599729	0.649298	0	0	-0.374944	-0.0747863	-0.605134	1.17868	1.5708	0	0
50.08	0.221621	1.37152	-1.42454	0.704375	1.86263	0.937288	-0.0922314	-0.141444	-0.155897	0.683647	-0.210132	0	0	-0.262286	-0.0559896	-0.142129	0.152646	-0.296634	0	0	-0.62311	0.142626	-0.76327	0.735113	-0.0668609	1.5708	0.599443	0.642113	0	0	-0.400462	-0.0763223	-0.583603	1.18405	1.5708	0	0
50.09	0.197688	1.37279	-1.40211	0.706014	1.86118	0.937547	-0.0666354	-0.141904	-0.149903	0.725363	-0.215976	0	0	-0.265337	-0.0583064	-0.139897	0.147102	-0.298151	0	0	-0.623571	0.150349	-0.765017	0.734407	-0.0659989	1.5708	0.592857	0.637369	0	0	-0.370823	-0.0766263	-0.617236	1.17121	1.5708	0	0
50.1	0.188444	1.36238	-1.39206	0.707122	1.86036	0.938394	-0.0552368	-0.142871	-0.149806	0.761377	-0.221308	0	0	-0.280006	-0.0611614	-0.137572	0.142375	-0.299558	0	0	-0.637089	0.153804	-0.76415	0.734182	-0.0674091	1.5708	0.590672	0.632449	0	0	-0.394323	-0.0793656	-0.593232	1.17347	1.5708	0	0
50.11	0.170984	1.35864	-1.37372	0.708456	1.85889	0.938878	-0.0381541	-0.142973	-0.150637	0.791261	-0.225342	0	0	-0.287802	-0.0649472	-0.135393	0.137619	-0.300608	0	0	-0.642463	0.159948	-0.765827	0.732818	-0.0678314	1.5708	0.586538	0.629378	0	0	-0.391698	-0.0811199	-0.59828	1.16772	1.5708	0	0
50.12	0.133025	1.36329	-1.33688	0.709637	1.85681	0.938285	-0.0103076	-0.140243	-0.149894	0.819873	-0.226901	0	0	-0.284289	-0.072756	-0.141155	0.138285	-0.299507	0	0	-0.636345	0.167088	-0.763566	0.728844	-0.070591	1.5708	0.581395	0.627835	0	0	-0.387171	-0.0814156	-0.602355	1.15691	1.5708	0	0
50.13	0.130525	1.34006	-1.34351	0.70913	1.85358	0.941364	-0.0231548	-0.133914	-0.14478	0.822152	-0.231987	0	0	-0.294911	-0.0793435	-0.166959	0.186668	-0.287735	0	0	-0.66297	0.165772	-0.755388	0.724881	-0.0686442	1.5708	0.574858	0.626729	0	0	-0.386456	-0.084986	-0.609416	1.15388	1.5708	0	0
50.14	0.0879152	1.36252	-1.28812	0.712432	1.85315	0.938604	0.0238037	-0.140079	-0.160112	0.84895	-0.232163	0	0	-0.282444	-0.0857053	-0.160654	0.153403	-0.28721	0	0	-0.637905	0.182159	-0.770165	0.724215	-0.0707724	1.5708	0.5709	0.627162	0	0	-0.382057	-0.0823123	-0.61655	1.1456	1.5708	0	0
50.15	0.078598	1.36231	-1.27544	0.713826	1.85126	0.939176	0.0376951	-0.142519	-0.16589	0.854417	-0.234655	0	0	-0.289881	-0.0856244	-0.145026	0.139671	-0.289815	0	0	-0.639227	0.187828	-0.775561	0.720146	-0.0691739	1.5708	0.56231	0.628524	0	0	-0.379545	-0.0839627	-0.6236	1.1407	1.5708	0	0
50.16	0.0347839	1.37046	-1.22927	0.715692	1.84848	0.938652	0.06086	-0.14078	-0.171675	0.854856	-0.237491	0	0	-0.283827	-0.092882	-0.14697	0.136302	-0.291283	0	0	-0.628004	0.198984	-0.780227	0.715334	-0.0692474	1.5708	0.553019	0.632192	0	0	-0.347693	-0.0820331	-0.662836	1.12298	1.5708	0	0
50.17	0.0398021	1.3584	-1.22742	0.717045	1.84698	0.939639	0.0571145	-0.141951	-0.183397	0.846679	-0.240077	0	0	-0.300186	-0.0981641	-0.145732	0.132719	-0.291799	0	0	-0.644301	0.201862	-0.781692	0.712397	-0.0729744	1.5708	0.552771	0.631204	0	0	-0.377126	-0.0814657	-0.642375	1.14608	1.5708	0	0
50.18	0.00916819	1.35949	-1.19365	0.718752	1.84418	0.939827	0.0686078	-0.139132	-0.189216	0.833867	-0.242889	0	0	-0.303174	-0.104809	-0.145793	0.126806	-0.292761	0	0	-0.639441	0.215536	-0.790047	0.709799	-0.0708222	1.5708	0.544395	0.633125	0	0	-0.37568	-0.0849221	-0.642019	1.13381	1.5708	0	0
50.19	0.0312005	1.32987	-1.22062	0.718633	1.84042	0.943751	0.0363586	-0.130091	-0.188588	0.798483	-0.249258	0	0	-0.321772	-0.112407	-0.169843	0.175967	-0.282169	0	0	-0.672953	0.216552	-0.783406	0.705434	-0.0689242	1.5708	0.537803	0.635039	0	0	-0.37724	-0.0907866	-0.645969	1.13925	1.5708	0	0
50.2	0.0162763	1.32658	-1.20265	0.720069	1.83792	0.944103	0.0417245	-0.127651	-0.192257	0.779729	-0.25181	0	0	-0.326527	-0.118792	-0.175327	0.178642	-0.276312	0	0	-0.676703	0.224301	-0.785901	0.702797	-0.070241	1.5708	0.533875	0.636604	0	0	-0.375987	-0.0923485	-0.654511	1.14338	1.5708	0	0
50.21	-0.0229606	1.34385	-1.15063	0.722901	1.83705	0.941348	0.0768663	-0.132526	-0.200202	0.775486	-0.249608	0	0	-0.328127	-0.121504	-0.154403	0.123099	-0.281756	0	0	-0.658787	0.23402	-0.793544	0.700668	-0.077324	1.5708	0.534566	0.637244	0	0	-0.373648	-0.089032	-0.665959	1.15734	1.5708	0	0
50.22	-0.0206391	1.33662	-1.14839	0.72406	1.83461	0.941925	0.0752747	-0.131251	-0.20285	0.750996	-0.249717	0	0	-0.346962	-0.122788	-0.134513	0.101751	-0.29028	0	0	-0.66789	0.239476	-0.798447	0.69811	-0.0766026	1.5708	0.530092	0.63928	0	0	-0.385757	-0.095613	-0.642036	1.17068	1.5708	0	0
50.23	-0.0422135	1.33983	-1.12566	0.725296	1.83123	0.941681	0.0870809	-0.12875	-0.200481	0.726935	-0.250016	0	0	-0.351076	-0.125328	-0.124412	0.0890205	-0.297205	0	0	-0.662635	0.245658	-0.799922	0.69296	-0.076833	1.5708	0.521048	0.643448	0	0	-0.351659	-0.0974194	-0.691566	1.1601	1.5708	0	0
50.24	-0.0185922	1.32442	-1.14681	0.725572	1.82935	0.942363	0.0779647	-0.127761	-0.197387	0.704916	-0.248917	0	0	-0.372459	-0.127912	-0.123124	0.0871214	-0.298535	0	0	-0.681219	0.249013	-0.80719	0.693966	-0.0723197	1.5708	0.518894	0.644968	0	0	-0.410682	-0.0782682	-0.572284	1.19437	1.5708	0	0
50.25	-0.0502524	1.332	-1.11686	0.726825	1.82502	0.941835	0.0932553	-0.123707	-0.190394	0.675553	-0.250979	0	0	-0.371927	-0.130574	-0.117163	0.0764217	-0.301195	0	0	-0.672266	0.252628	-0.801968	0.686235	-0.0754212	1.5708	0.508465	0.650074	0	0	-0.35631	-0.104857	-0.693991	1.17704	1.5708	0	0
50.26	-0.0364945	1.3211	-1.1283	0.727277	1.82235	0.942257	0.0873649	-0.122571	-0.188304	0.649349	-0.25266	0	0	-0.389671	-0.133025	-0.111787	0.0713541	-0.302064	0	0	-0.686865	0.254513	-0.804441	0.684322	-0.0733706	1.5708	0.504609	0.653045	0	0	-0.393419	-0.109203	-0.651552	1.2039	1.5708	0	0
50.27	-0.0583994	1.32361	-1.10854	0.72786	1.81842	0.941481	0.099879	-0.118554	-0.179723	0.625699	-0.253897	0	0	-0.391217	-0.137013	-0.111754	0.0688273	-0.301076	0	0	-0.683302	0.258219	-0.802409	0.679866	-0.0733486	1.5708	0.496981	0.655401	0	0	-0.385519	-0.109492	-0.67723	1.20541	1.5708	0	0
50.28	-0.0611866	1.32396	-1.10433	0.728805	1.81487	0.941389	0.106215	-0.119377	-0.176101	0.599606	-0.258008	0	0	-0.395469	-0.137586	-0.10588	0.0664816	-0.299482	0	0	-0.683609	0.263068	-0.808365	0.676405	-0.0679221	1.5708	0.484577	0.663023	0	0	-0.362403	-0.113615	-0.701991	1.20257	1.5708	0	0
50.29	-0.0817848	1.32455	-1.08842	0.728908	1.81078	0.940594	0.118027	-0.113852	-0.160895	0.578434	-0.257945	0	0	-0.397875	-0.14202	-0.112923	0.0682606	-0.295207	0	0	-0.682712	0.266184	-0.805999	0.672941	-0.0654719	1.5708	0.47592	0.669378	0	0	-0.364002	-0.115869	-0.70326	1.2087	1.5708	0	0
50.3	-0.0685006	1.31176	-1.10139	0.729017	1.80741	0.94097	0.110412	-0.110781	-0.15318	0.554742	-0.257749	0	0	-0.41555	-0.146722	-0.118449	0.0711478	-0.290886	0	0	-0.699764	0.26814	-0.807186	0.672016	-0.0617684	1.5708	0.47197	0.671998	0	0	-0.394997	-0.118219	-0.680075	1.23251	1.5708	0	0
